Coordinates
version=1
nRows=8
nColumns=40
inDegrees=yes

Units are S.I. units (second, meters, Newtons, ...)
If the header above contains a line with 'inDegrees', this indicates whether rotational values are in degrees (yes) or radians (no).

endheader
time	pelvis_tilt	pelvis_list	pelvis_rotation	pelvis_tx	pelvis_ty	pelvis_tz	hip_flexion_r	hip_adduction_r	hip_rotation_r	knee_angle_r	knee_angle_r_beta	ankle_angle_r	subtalar_angle_r	mtp_angle_r	hip_flexion_l	hip_adduction_l	hip_rotation_l	knee_angle_l	knee_angle_l_beta	ankle_angle_l	subtalar_angle_l	mtp_angle_l	lumbar_extension	lumbar_bending	lumbar_rotation	arm_flex_r	arm_add_r	arm_rot_r	elbow_flex_r	pro_sup_r	wrist_flex_r	wrist_dev_r	arm_flex_l	arm_add_l	arm_rot_l	elbow_flex_l	pro_sup_l	wrist_flex_l	wrist_dev_l
      5.15000000	     -8.70435340	     -8.26908773	      2.82971035	     -0.30971148	      0.73122593	     -0.97009133	     62.17708455	      0.36731071	     -7.22803534	      9.09004294	      0.15865118	    -19.56924176	      0.00000000	      0.00000000	     62.87122094	     -7.14161537	      1.15639985	     92.97677310	      1.62275082	     26.89891712	      0.00000000	      0.00000000	    -12.59627323	     -0.09114208	      5.25751957	     89.93887223	    -14.43568265	     12.68001790	     37.37696782	     78.20144852	      0.00000000	      0.00000000	     89.94079119	    -28.32570079	     16.83278228	     43.38006168	     83.32518141	      0.00000000	      0.00000000
      5.15500000	     -8.72355618	     -8.27864640	      2.85878115	     -0.30953812	      0.73190864	     -0.96982072	     62.17550953	      0.36511113	     -7.23124107	      9.09687230	      0.15877037	    -19.57112982	      0.00000000	      0.00000000	     62.83064315	     -7.17195517	      1.16782952	     92.94037540	      1.62211556	     26.87640299	      0.00000000	      0.00000000	    -12.53226787	     -0.11052810	      5.26493631	     89.93870006	    -14.44657437	     12.67869332	     37.40419472	     78.20412741	      0.00000000	      0.00000000	     89.94031109	    -28.32579530	     16.82037897	     43.38682698	     83.32302913	      0.00000000	      0.00000000
      5.16000000	     -8.72995545	     -8.36162590	      2.91633397	     -0.30934719	      0.73270815	     -0.96971036	     62.16498858	      0.37889920	     -7.25968695	      9.13452186	      0.15942748	    -19.60183723	      0.00000000	      0.00000000	     62.76447881	     -7.24399307	      1.19636436	     92.72448676	      1.61834759	     26.83530519	      0.00000000	      0.00000000	    -12.46274778	     -0.01928679	      5.25067992	     89.93873503	    -14.49220565	     12.72488270	     37.35562414	     78.21952469	      0.00000000	      0.00000000	     89.94018904	    -28.33528467	     16.83039747	     43.24303971	     83.31536749	      0.00000000	      0.00000000
      5.16500000	     -8.73975203	     -8.37081267	      2.92259560	     -0.30908696	      0.73343870	     -0.96953154	     62.15272403	      0.40178418	     -7.27402069	      9.14028004	      0.15952798	    -19.60848784	      0.00000000	      0.00000000	     62.72088489	     -7.26246168	      1.20946275	     92.68158013	      1.61759873	     26.82299075	      0.00000000	      0.00000000	    -12.40168504	     -0.04475387	      5.24891648	     89.93842675	    -14.50677739	     12.72662239	     37.37758219	     78.22184779	      0.00000000	      0.00000000	     89.93987984	    -28.35397063	     16.81571407	     43.24056184	     83.31251432	      0.00000000	      0.00000000
      5.17000000	     -8.69679351	     -8.33779398	      2.91306312	     -0.30880150	      0.73437465	     -0.96937423	     62.09952790	      0.41165479	     -7.27523885	      9.19804014	      0.16053609	    -19.64657548	      0.00000000	      0.00000000	     62.49144132	     -7.27383722	      1.17776891	     92.40797134	      1.61282335	     26.73850759	      0.00000000	      0.00000000	    -12.37627611	     -0.07439681	      5.24576435	     89.93837282	    -14.50238963	     12.82490018	     37.23958539	     78.24397108	      0.00000000	      0.00000000	     89.93977002	    -28.38986525	     16.85389680	     43.01831432	     83.30815900	      0.00000000	      0.00000000
      5.17500000	     -8.71315760	     -8.35676930	      2.93229949	     -0.30855294	      0.73519118	     -0.96917815	     62.07912112	      0.42483567	     -7.28282367	      9.20149093	      0.16059631	    -19.64381867	      0.00000000	      0.00000000	     62.44008962	     -7.30290755	      1.18539920	     92.36041920	      1.61199341	     26.71147373	      0.00000000	      0.00000000	    -12.29714391	     -0.08377082	      5.24455468	     89.93806239	    -14.53642420	     12.82314572	     37.25985248	     78.24576470	      0.00000000	      0.00000000	     89.93947487	    -28.41270241	     16.83268744	     43.01827110	     83.30480448	      0.00000000	      0.00000000
      5.18000000	     -8.66757685	     -8.34789523	      2.90318898	     -0.30817996	      0.73631629	     -0.96897727	     62.00116474	      0.48157501	     -7.27610851	      9.22851173	      0.16106791	    -19.65836461	      0.00000000	      0.00000000	     62.19654317	     -7.36180978	      1.15218782	     92.07105274	      1.60694302	     26.55205112	      0.00000000	      0.00000000	    -12.27678736	     -0.10158285	      5.29508558	     89.93807108	    -14.55541906	     12.92879494	     37.16354916	     78.27014739	      0.00000000	      0.00000000	     89.93922625	    -28.42436645	     16.89604412	     42.80841338	     83.30648285	      0.00000000	      0.00000000
      5.18500000	     -8.66644176	     -8.35070551	      2.91349585	     -0.30793498	      0.73704025	     -0.96881321	     61.97784283	      0.50115931	     -7.26951028	      9.23561479	      0.16119189	    -19.65988932	      0.00000000	      0.00000000	     62.17636040	     -7.38800445	      1.13696126	     92.03477677	      1.60630988	     26.55051979	      0.00000000	      0.00000000	    -12.21005239	     -0.11759505	      5.29861194	     89.93803229	    -14.57788221	     12.92581695	     37.19153636	     78.27219741	      0.00000000	      0.00000000	     89.93888940	    -28.44185478	     16.88198278	     42.81074429	     83.30439542	      0.00000000	      0.00000000
